<?xml version="1.0" encoding="utf-8"?>
<!-- Generator: Adobe Illustrator 21.1.0, SVG Export Plug-In . SVG Version: 6.00 Build 0)  -->
<svg version="1.1" id="Layer_1" xmlns="http://www.w3.org/2000/svg" xmlns:xlink="http://www.w3.org/1999/xlink" x="0px" y="0px"
	 viewBox="0 0 36.9 540.6" style="enable-background:new 0 0 36.9 540.6;" xml:space="preserve">
<style type="text/css">
	.st0{fill:none;stroke:#383938;}
</style>
<path class="st0" d="M1.2,33.9v-2.7c0-3,0.3-5.6,1-7.8c0.7-2.3,1.5-4,2.5-5.3s2.2-2.3,3.6-3.1c1.4-0.8,2.7-1.3,3.9-1.6
	c1.2-0.2,2.4-0.4,3.7-0.4h0.3v12.3c-3.8,0.4-5.6,2.8-5.6,7.2v0.4c0,2.5,0.7,4.4,2,5.5c1.3,1.2,3.1,1.7,5.4,1.7h16.4v12.5H17.6
	c-1.1,0-2.1-0.1-3.1-0.2s-2-0.4-3.1-0.7c-1.1-0.4-2.2-0.8-3.1-1.4c-1-0.6-1.9-1.3-2.8-2.3c-0.9-1-1.6-2.1-2.3-3.4
	c-0.6-1.3-1.1-2.8-1.5-4.7C1.4,38.2,1.2,36.2,1.2,33.9z"/>
<path class="st0" d="M11.9,80.7v-8.4H4.2v-8.1h7.7v-8.4h6.6v8.4h7.7v8.1h-7.7v8.4H11.9z"/>
<path class="st0" d="M1.6,84.1h32.8v23.2c0,3.6-0.3,6.9-0.9,9.7c-0.6,2.8-1.4,5.1-2.3,6.8c-1,1.7-2.1,3.1-3.5,4.2
	c-1.4,1.1-2.8,1.9-4.2,2.3c-1.4,0.4-2.9,0.6-4.6,0.6h-1.3c-1.6,0-3.1-0.2-4.5-0.6c-1.4-0.4-2.8-1.1-4.3-2.2
	c-1.4-1.1-2.7-2.4-3.7-4.1c-1-1.7-1.8-4-2.5-6.8c-0.6-2.9-1-6.2-1-9.9V84.1z M25.8,96.6H10.3v9.3c0,8.1,2.6,12.1,7.7,12.1h0.3
	c5,0,7.6-4,7.6-12.1v-9.3H25.8z"/>
<path class="st0" d="M11.9,174.6v-14.8H1.6v-12.5h32.8v27.3c0,10.4-3.6,15.5-10.8,15.5h-0.7C15.6,190.1,11.9,184.9,11.9,174.6z
	 M26.2,159.8h-6.1v13.3c0,2.8,1,4.1,3,4.1h0.1c2,0,3-1.4,3-4.1V159.8z"/>
<path class="st0" d="M35,215.7v2c0,2.9-0.2,5.6-0.6,7.9c-0.4,2.4-0.9,4.4-1.5,6s-1.4,3.1-2.3,4.3c-0.9,1.2-1.9,2.2-2.8,2.9
	c-0.9,0.7-2,1.3-3.1,1.7c-1.1,0.4-2.1,0.7-3,0.8c-0.9,0.1-1.9,0.2-2.9,0.2h-1.3c-1,0-2-0.1-2.9-0.2s-1.9-0.4-3.1-0.8
	c-1.1-0.4-2.2-1-3.1-1.7c-1-0.7-1.9-1.6-2.8-2.9c-0.9-1.2-1.7-2.7-2.4-4.3c-0.6-1.6-1.2-3.6-1.6-6c-0.4-2.4-0.6-5.1-0.6-8v-2
	c0-2.9,0.2-5.6,0.6-8c0.4-2.4,0.9-4.4,1.6-6c0.6-1.6,1.4-3.1,2.4-4.3c0.9-1.2,1.9-2.2,2.8-2.9c1-0.7,2-1.2,3.1-1.7
	c1.1-0.4,2.1-0.7,3.1-0.8c0.9-0.1,1.9-0.2,2.9-0.2h1.3c1,0,2,0.1,2.9,0.2c0.9,0.1,1.9,0.4,3,0.8c1.1,0.4,2.1,1,3.1,1.7
	c0.9,0.7,1.9,1.7,2.8,2.9c0.9,1.2,1.7,2.7,2.3,4.3s1.1,3.6,1.5,6C34.8,210.1,35,212.8,35,215.7z M17.8,228.6h0.6
	c1,0,1.9-0.2,2.7-0.5s1.6-0.9,2.4-1.8s1.4-2.1,1.9-3.7c0.5-1.6,0.7-3.6,0.7-5.9c0-2.3-0.2-4.3-0.7-6c-0.5-1.6-1.1-2.9-1.9-3.7
	c-0.8-0.8-1.6-1.4-2.4-1.7c-0.8-0.3-1.7-0.5-2.7-0.5h-0.5c-1,0-1.9,0.2-2.8,0.5c-0.9,0.3-1.7,0.9-2.6,1.8c-0.8,0.8-1.5,2.1-2,3.7
	c-0.5,1.7-0.7,3.6-0.7,5.9s0.2,4.3,0.7,5.9c0.5,1.7,1.1,2.9,2,3.7c0.8,0.8,1.7,1.4,2.5,1.8C16,228.4,16.9,228.6,17.8,228.6z"/>
<path class="st0" d="M12.9,257.2H1.7v-12.5h32.7v29.7c0,9.2-2.8,13.8-8.4,13.8h-0.5c-1.1,0-2.1-0.2-3-0.7c-0.9-0.4-1.6-1-2.2-1.7
	c-0.6-0.7-1-1.4-1.3-2.1s-0.6-1.4-0.7-2.1c-0.5,2.1-1.4,3.7-2.7,4.9c-1.3,1.2-3,1.8-5.1,1.8H5.7c-1.7,0-2.9,0.2-3.7,0.6H1.8v-12.8
	c0.3-0.3,0.9-0.4,1.7-0.4h3.8c1.9,0,3.4-0.5,4.3-1.5s1.4-2.7,1.4-5.1v-11.9L12.9,257.2L12.9,257.2z M26.4,257.2h-5.6v14.3
	c0,2.5,0.9,3.8,2.8,3.8l0,0c1.8,0,2.8-1.3,2.8-3.8V257.2z"/>
<path class="st0" d="M1.6,304.4h23.8v-14.1h9V331h-8.9v-14.1H1.7v-12.5H1.6z"/>
<path class="st0" d="M34.4,334.3v35.5h-8v-23.1h-4.1v22.7h-8.1v-22.7H1.6v-12.4H34.4z"/>
<path class="st0" d="M35,396.3v2c0,2.9-0.2,5.6-0.6,7.9c-0.4,2.4-0.9,4.4-1.5,6s-1.4,3.1-2.3,4.3c-0.9,1.2-1.9,2.2-2.8,2.9
	c-0.9,0.7-2,1.3-3.1,1.7c-1.1,0.4-2.1,0.7-3,0.8c-0.9,0.1-1.9,0.2-2.9,0.2h-1.3c-1,0-2-0.1-2.9-0.2s-1.9-0.4-3.1-0.8
	c-1.1-0.4-2.2-1-3.1-1.7c-1-0.7-1.9-1.7-2.8-2.9c-0.9-1.2-1.7-2.7-2.4-4.3c-0.6-1.6-1.2-3.6-1.6-6c-0.4-2.4-0.6-5.1-0.6-8v-2
	c0-2.9,0.2-5.6,0.6-8s0.9-4.4,1.6-6c0.6-1.6,1.4-3.1,2.4-4.3c0.9-1.2,1.9-2.2,2.8-2.9c1-0.7,2-1.2,3.1-1.7c1.1-0.4,2.1-0.7,3.1-0.8
	c0.9-0.1,1.9-0.2,2.9-0.2h1.3c1,0,2,0.1,2.9,0.2s1.9,0.4,3,0.8s2.1,1,3.1,1.7c0.9,0.7,1.9,1.7,2.8,2.9c0.9,1.2,1.7,2.7,2.3,4.3
	s1.1,3.6,1.5,6S35,393.3,35,396.3z M17.8,409.2h0.6c1,0,1.9-0.2,2.7-0.5c0.8-0.4,1.6-0.9,2.4-1.8s1.4-2.1,1.9-3.7s0.7-3.6,0.7-5.9
	s-0.2-4.3-0.7-6c-0.5-1.6-1.1-2.9-1.9-3.7c-0.8-0.8-1.6-1.4-2.4-1.7c-0.8-0.3-1.7-0.5-2.7-0.5h-0.5c-1,0-1.9,0.2-2.8,0.5
	c-0.9,0.4-1.7,0.9-2.6,1.8c-0.8,0.8-1.5,2.1-2,3.7c-0.5,1.7-0.7,3.6-0.7,5.9s0.2,4.3,0.7,5.9s1.1,2.9,2,3.7c0.8,0.8,1.7,1.4,2.5,1.8
	C16,409,16.9,409.2,17.8,409.2z"/>
<path class="st0" d="M34.4,425.2v12.5H11v22.7H1.6v-35.2H34.4z"/>
<path class="st0" d="M34.4,476.2H1.7v-12.5h32.7V476.2z"/>
<path class="st0" d="M35,503.2v2c0,2.9-0.2,5.6-0.6,7.9c-0.4,2.4-0.9,4.4-1.5,6s-1.4,3.1-2.3,4.3c-0.9,1.2-1.9,2.2-2.8,2.9
	c-0.9,0.7-2,1.3-3.1,1.7s-2.1,0.7-3,0.8s-1.9,0.2-2.9,0.2h-1.3c-1,0-2-0.1-2.9-0.2c-0.9-0.1-1.9-0.4-3.1-0.8c-1.1-0.4-2.2-1-3.1-1.7
	c-1-0.7-1.9-1.7-2.8-2.9c-0.9-1.2-1.7-2.7-2.4-4.3c-0.6-1.6-1.2-3.6-1.6-6c-0.4-2.4-0.6-5.1-0.6-8v-2c0-2.9,0.2-5.6,0.6-8
	s0.9-4.4,1.6-6c0.6-1.6,1.4-3.1,2.4-4.3c0.9-1.2,1.9-2.2,2.8-2.9c1-0.7,2-1.2,3.1-1.7c1.1-0.4,2.1-0.7,3.1-0.8
	c0.9-0.1,1.9-0.2,2.9-0.2h1.3c1,0,2,0.1,2.9,0.2s1.9,0.4,3,0.8c1.1,0.4,2.1,1,3.1,1.7c0.9,0.7,1.9,1.7,2.8,2.9
	c0.9,1.2,1.7,2.7,2.3,4.3s1.1,3.6,1.5,6S35,500.2,35,503.2z M17.8,516.1h0.6c1,0,1.9-0.2,2.7-0.5c0.8-0.4,1.6-0.9,2.4-1.8
	s1.4-2.1,1.9-3.7c0.5-1.6,0.7-3.6,0.7-5.9c0-2.3-0.2-4.3-0.7-6c-0.5-1.6-1.1-2.9-1.9-3.7c-0.8-0.8-1.6-1.4-2.4-1.7
	c-0.8-0.3-1.7-0.5-2.7-0.5h-0.5c-1,0-1.9,0.2-2.8,0.5c-0.9,0.4-1.7,0.9-2.6,1.8c-0.8,0.8-1.5,2.1-2,3.7c-0.5,1.7-0.7,3.6-0.7,5.9
	s0.2,4.3,0.7,5.9s1.1,2.9,2,3.7c0.8,0.8,1.7,1.4,2.5,1.8C16,515.9,16.9,516.1,17.8,516.1z"/>
</svg>
