<?xml version="1.0" encoding="utf-8"?>
<!-- Generator: Adobe Illustrator 21.1.0, SVG Export Plug-In . SVG Version: 6.00 Build 0)  -->
<svg version="1.1" id="Layer_1" xmlns="http://www.w3.org/2000/svg" xmlns:xlink="http://www.w3.org/1999/xlink" x="0px" y="0px"
	 viewBox="0 0 612 206.1" style="enable-background:new 0 0 612 206.1;" xml:space="preserve">
<style type="text/css">
	.st0{fill:#FFFFFF;}
	.st1{fill:none;stroke:#FFFFFF;}
</style>
<g>
	<path class="st0" d="M55.8,63.2V30.4H73l10,18.4l10.2-18.4h16.5v32.7H97.3V42.7L85.8,63.2h-6.4L68,42.7v20.4L55.8,63.2L55.8,63.2z"
		/>
	<path class="st0" d="M126.3,30.4v32.7h-12.5V30.4H126.3z"/>
	<path class="st0" d="M143.1,63.2h-12.5V30.4h12.5v12.9l16.1-12.9h15.5l-19.1,14.9l19.7,17.9H159l-16-14.7v14.7H143.1z"/>
	<path class="st0" d="M189.1,63.2h-12.5V30.4h12.5v12.9l16.1-12.9h15.5l-19.1,14.9l19.7,17.9H205l-16-14.7v14.7H189.1z"/>
	<path class="st0" d="M235.1,30.4v32.7h-12.5V30.4H235.1z"/>
	<path class="st0" d="M252.7,63.2V30.4h17.2l10,18.4l10.2-18.4h16.5v32.7h-12.4V42.7l-11.5,20.4h-6.4l-11.4-20.4v20.4L252.7,63.2
		L252.7,63.2z"/>
	<path class="st0" d="M334.5,63.8h-1.7c-3.8,0-7.2-0.4-10.1-1.1c-2.9-0.8-5.1-1.7-6.8-2.8c-1.6-1.1-2.9-2.5-3.9-4
		c-1-1.6-1.6-3-1.9-4.3c-0.3-1.3-0.4-2.7-0.4-4.1V46c0-1.5,0.1-2.8,0.4-4.1s0.9-2.7,1.9-4.2s2.3-2.9,3.9-4s3.9-2,6.8-2.8
		s6.3-1.1,10.2-1.1h1.7c2.7,0,5.2,0.2,7.5,0.5c2.3,0.4,4.2,0.8,5.7,1.4c1.5,0.6,2.9,1.2,4.1,2s2.1,1.6,2.8,2.4
		c0.7,0.8,1.2,1.6,1.6,2.5s0.7,1.7,0.8,2.4c0.1,0.7,0.2,1.4,0.2,2.1v0.6h-13c-1-3.3-4.6-5-10.8-5c-7.3,0-11,2.6-11,7.7v0.5
		c0,1,0.2,1.9,0.5,2.8c0.3,0.9,0.9,1.7,1.7,2.6c0.8,0.9,1.9,1.5,3.4,2s3.3,0.7,5.4,0.7c1.8,0,3.4-0.2,4.8-0.5s2.4-0.7,3.1-1.1
		s1.3-0.9,1.8-1.5s0.7-1.1,0.8-1.3c0.1-0.3,0.2-0.6,0.3-0.9h12.9v0.7c0,1-0.1,2-0.4,3.1c-0.3,1-0.9,2.2-1.9,3.5s-2.3,2.4-3.8,3.4
		c-1.6,1-3.8,1.8-6.6,2.5S338.3,63.8,334.5,63.8z"/>
	<path class="st0" d="M384.1,63.8h-1.7c-3.8,0-7.2-0.4-10.1-1.1c-2.9-0.8-5.1-1.7-6.8-2.8c-1.6-1.1-2.9-2.5-3.9-4
		c-1-1.6-1.6-3-1.9-4.3c-0.3-1.3-0.4-2.7-0.4-4.1V46c0-1.5,0.1-2.8,0.4-4.1s0.9-2.7,1.9-4.2s2.3-2.9,3.9-4s3.9-2,6.8-2.8
		s6.3-1.1,10.2-1.1h1.7c2.7,0,5.2,0.2,7.5,0.5c2.3,0.4,4.2,0.8,5.7,1.4c1.5,0.6,2.9,1.2,4.1,2s2.1,1.6,2.8,2.4
		c0.7,0.8,1.2,1.6,1.6,2.5s0.7,1.7,0.8,2.4c0.1,0.7,0.2,1.4,0.2,2.1v0.6h-13c-1-3.3-4.6-5-10.8-5c-7.3,0-11,2.6-11,7.7v0.5
		c0,1,0.2,1.9,0.5,2.8c0.3,0.9,0.9,1.7,1.7,2.6c0.8,0.9,1.9,1.5,3.4,2s3.3,0.7,5.4,0.7c1.8,0,3.4-0.2,4.8-0.5s2.4-0.7,3.1-1.1
		s1.3-0.9,1.8-1.5s0.7-1.1,0.8-1.3c0.1-0.3,0.2-0.6,0.3-0.9h12.9v0.7c0,1-0.1,2-0.4,3.1c-0.3,1-0.9,2.2-1.9,3.5s-2.3,2.4-3.8,3.4
		c-1.6,1-3.8,1.8-6.6,2.5S387.8,63.8,384.1,63.8z"/>
	<path class="st0" d="M441,63.2l-2.6-5.3h-18.7l-2.5,5.3h-12.7l16.2-32.7h16.8l17.1,32.7H441z M434.4,49.7l-5.5-11.3l-5.4,11.3
		H434.4z"/>
	<path class="st0" d="M456.1,30.4h14l19,18.6V30.4h12.4v32.7H489l-20.5-19.8v19.8h-12.4V30.4z"/>
	<path class="st0" d="M505.7,30.4h14l19,18.6V30.4h12.4v32.7h-12.5l-20.5-19.8v19.8h-12.4L505.7,30.4L505.7,30.4z"/>
	<path class="st1" d="M294.2,116h-15l15-16.8l-14.5-15.9h16l8.3,9.6l8.4-9.6h14.8L312.9,99l14.8,16.9h-15.4l-9.2-10.3L294.2,116z"/>
	<path class="st1" d="M66,169.2h-2.7c-3,0-5.6-0.3-7.8-1c-2.3-0.7-4-1.5-5.3-2.5s-2.3-2.2-3.1-3.6c-0.8-1.4-1.3-2.7-1.6-3.9
		c-0.2-1.2-0.4-2.4-0.4-3.7v-0.3h12.3c0.4,3.8,2.8,5.6,7.2,5.6H65c2.5,0,4.4-0.7,5.5-2c1.2-1.3,1.7-3.1,1.7-5.4V136h12.5v16.8
		c0,1.1-0.1,2.1-0.2,3.1s-0.4,2-0.7,3.1c-0.4,1.1-0.8,2.2-1.4,3.1c-0.6,1-1.3,1.9-2.3,2.8c-1,0.9-2.1,1.6-3.4,2.3
		c-1.3,0.6-2.8,1.1-4.7,1.5C70.3,169,68.3,169.2,66,169.2z"/>
	<path class="st1" d="M112.8,158.5h-8.4v7.7h-8.1v-7.7h-8.4v-6.6h8.4v-7.7h8.1v7.7h8.4V158.5z"/>
	<path class="st1" d="M116.2,168.8V136h23.2c3.6,0,6.9,0.3,9.7,0.9c2.8,0.6,5.1,1.4,6.8,2.3c1.7,1,3.1,2.1,4.2,3.5
		c1.1,1.4,1.9,2.8,2.3,4.2c0.4,1.4,0.6,2.9,0.6,4.6v1.3c0,1.6-0.2,3.1-0.6,4.5c-0.4,1.4-1.1,2.8-2.2,4.3c-1.1,1.4-2.4,2.7-4.1,3.7
		c-1.7,1-4,1.8-6.8,2.5c-2.9,0.6-6.2,1-9.9,1H116.2z M128.7,144.6v15.5h9.3c8.1,0,12.1-2.6,12.1-7.7v-0.3c0-5-4-7.6-12.1-7.6h-9.3
		V144.6z"/>
	<path class="st1" d="M206.7,158.5h-14.8v10.3h-12.5V136h27.3c10.4,0,15.5,3.6,15.5,10.8v0.7C222.2,154.8,217,158.5,206.7,158.5z
		 M191.9,144.2v6.1h13.3c2.8,0,4.1-1,4.1-3v-0.1c0-2-1.4-3-4.1-3H191.9z"/>
	<path class="st1" d="M247.8,135.4h2c2.9,0,5.6,0.2,7.9,0.6c2.4,0.4,4.4,0.9,6,1.5s3.1,1.4,4.3,2.3c1.2,0.9,2.2,1.9,2.9,2.8
		c0.7,0.9,1.3,2,1.7,3.1c0.4,1.1,0.7,2.1,0.8,3c0.1,0.9,0.2,1.9,0.2,2.9v1.3c0,1-0.1,2-0.2,2.9s-0.4,1.9-0.8,3.1
		c-0.4,1.1-1,2.2-1.7,3.1c-0.7,1-1.6,1.9-2.9,2.8c-1.2,0.9-2.7,1.7-4.3,2.4c-1.6,0.6-3.6,1.2-6,1.6c-2.4,0.4-5.1,0.6-8,0.6h-2
		c-2.9,0-5.6-0.2-8-0.6c-2.4-0.4-4.4-0.9-6-1.6c-1.6-0.6-3.1-1.4-4.3-2.4c-1.2-0.9-2.2-1.9-2.9-2.8c-0.7-1-1.2-2-1.7-3.1
		c-0.4-1.1-0.7-2.1-0.8-3.1c-0.1-0.9-0.2-1.9-0.2-2.9v-1.3c0-1,0.1-2,0.2-2.9c0.1-0.9,0.4-1.9,0.8-3c0.4-1.1,1-2.1,1.7-3.1
		c0.7-0.9,1.7-1.9,2.9-2.8c1.2-0.9,2.7-1.7,4.3-2.3s3.6-1.1,6-1.5C242.2,135.6,244.9,135.4,247.8,135.4z M260.7,152.6V152
		c0-1-0.2-1.9-0.5-2.7s-0.9-1.6-1.8-2.4s-2.1-1.4-3.7-1.9c-1.6-0.5-3.6-0.7-5.9-0.7c-2.3,0-4.3,0.2-6,0.7c-1.6,0.5-2.9,1.1-3.7,1.9
		c-0.8,0.8-1.4,1.6-1.7,2.4c-0.3,0.8-0.5,1.7-0.5,2.7v0.5c0,1,0.2,1.9,0.5,2.8s0.9,1.7,1.8,2.6c0.8,0.8,2.1,1.5,3.7,2
		c1.7,0.5,3.6,0.7,5.9,0.7s4.3-0.2,5.9-0.7c1.7-0.5,2.9-1.1,3.7-2c0.8-0.8,1.4-1.7,1.8-2.5C260.5,154.4,260.7,153.5,260.7,152.6z"/>
	<path class="st1" d="M289.3,157.5v11.2h-12.5V136h29.7c9.2,0,13.8,2.8,13.8,8.4v0.5c0,1.1-0.2,2.1-0.7,3c-0.4,0.9-1,1.6-1.7,2.2
		c-0.7,0.6-1.4,1-2.1,1.3s-1.4,0.6-2.1,0.7c2.1,0.5,3.7,1.4,4.9,2.7c1.2,1.3,1.8,3,1.8,5.1v4.8c0,1.7,0.2,2.9,0.6,3.7v0.2h-12.8
		c-0.3-0.3-0.4-0.9-0.4-1.7v-3.8c0-1.9-0.5-3.4-1.5-4.3s-2.7-1.4-5.1-1.4h-11.9V157.5z M289.3,144v5.6h14.3c2.5,0,3.8-0.9,3.8-2.8
		l0,0c0-1.8-1.3-2.8-3.8-2.8H289.3z"/>
	<path class="st1" d="M336.5,168.8V145h-14.1v-9h40.7v8.9H349v23.8h-12.5V168.8z"/>
	<path class="st1" d="M366.4,136h35.5v8h-23.1v4.1h22.7v8.1h-22.7v12.6h-12.4V136z"/>
	<path class="st1" d="M428.4,135.4h2c2.9,0,5.6,0.2,7.9,0.6c2.4,0.4,4.4,0.9,6,1.5s3.1,1.4,4.3,2.3c1.2,0.9,2.2,1.9,2.9,2.8
		c0.7,0.9,1.3,2,1.7,3.1c0.4,1.1,0.7,2.1,0.8,3c0.1,0.9,0.2,1.9,0.2,2.9v1.3c0,1-0.1,2-0.2,2.9s-0.4,1.9-0.8,3.1
		c-0.4,1.1-1,2.2-1.7,3.1c-0.7,1-1.7,1.9-2.9,2.8c-1.2,0.9-2.7,1.7-4.3,2.4c-1.6,0.6-3.6,1.2-6,1.6c-2.4,0.4-5.1,0.6-8,0.6h-2
		c-2.9,0-5.6-0.2-8-0.6s-4.4-0.9-6-1.6c-1.6-0.6-3.1-1.4-4.3-2.4c-1.2-0.9-2.2-1.9-2.9-2.8c-0.7-1-1.2-2-1.7-3.1
		c-0.4-1.1-0.7-2.1-0.8-3.1c-0.1-0.9-0.2-1.9-0.2-2.9v-1.3c0-1,0.1-2,0.2-2.9s0.4-1.9,0.8-3s1-2.1,1.7-3.1c0.7-0.9,1.7-1.9,2.9-2.8
		c1.2-0.9,2.7-1.7,4.3-2.3s3.6-1.1,6-1.5S425.4,135.4,428.4,135.4z M441.3,152.6V152c0-1-0.2-1.9-0.5-2.7c-0.4-0.8-0.9-1.6-1.8-2.4
		s-2.1-1.4-3.7-1.9s-3.6-0.7-5.9-0.7s-4.3,0.2-6,0.7c-1.6,0.5-2.9,1.1-3.7,1.9c-0.8,0.8-1.4,1.6-1.7,2.4c-0.3,0.8-0.5,1.7-0.5,2.7
		v0.5c0,1,0.2,1.9,0.5,2.8c0.4,0.9,0.9,1.7,1.8,2.6c0.8,0.8,2.1,1.5,3.7,2c1.7,0.5,3.6,0.7,5.9,0.7s4.3-0.2,5.9-0.7s2.9-1.1,3.7-2
		c0.8-0.8,1.4-1.7,1.8-2.5C441.1,154.4,441.3,153.5,441.3,152.6z"/>
	<path class="st1" d="M457.3,136h12.5v23.4h22.7v9.4h-35.2V136z"/>
	<path class="st1" d="M508.3,136v32.7h-12.5V136H508.3z"/>
	<path class="st1" d="M535.3,135.4h2c2.9,0,5.6,0.2,7.9,0.6c2.4,0.4,4.4,0.9,6,1.5s3.1,1.4,4.3,2.3c1.2,0.9,2.2,1.9,2.9,2.8
		c0.7,0.9,1.3,2,1.7,3.1s0.7,2.1,0.8,3s0.2,1.9,0.2,2.9v1.3c0,1-0.1,2-0.2,2.9c-0.1,0.9-0.4,1.9-0.8,3.1c-0.4,1.1-1,2.2-1.7,3.1
		c-0.7,1-1.7,1.9-2.9,2.8c-1.2,0.9-2.7,1.7-4.3,2.4c-1.6,0.6-3.6,1.2-6,1.6c-2.4,0.4-5.1,0.6-8,0.6h-2c-2.9,0-5.6-0.2-8-0.6
		s-4.4-0.9-6-1.6c-1.6-0.6-3.1-1.4-4.3-2.4c-1.2-0.9-2.2-1.9-2.9-2.8c-0.7-1-1.2-2-1.7-3.1c-0.4-1.1-0.7-2.1-0.8-3.1
		c-0.1-0.9-0.2-1.9-0.2-2.9v-1.3c0-1,0.1-2,0.2-2.9s0.4-1.9,0.8-3c0.4-1.1,1-2.1,1.7-3.1c0.7-0.9,1.7-1.9,2.9-2.8
		c1.2-0.9,2.7-1.7,4.3-2.3s3.6-1.1,6-1.5S532.3,135.4,535.3,135.4z M548.2,152.6V152c0-1-0.2-1.9-0.5-2.7c-0.4-0.8-0.9-1.6-1.8-2.4
		s-2.1-1.4-3.7-1.9c-1.6-0.5-3.6-0.7-5.9-0.7c-2.3,0-4.3,0.2-6,0.7c-1.6,0.5-2.9,1.1-3.7,1.9c-0.8,0.8-1.4,1.6-1.7,2.4
		c-0.3,0.8-0.5,1.7-0.5,2.7v0.5c0,1,0.2,1.9,0.5,2.8c0.4,0.9,0.9,1.7,1.8,2.6c0.8,0.8,2.1,1.5,3.7,2c1.7,0.5,3.6,0.7,5.9,0.7
		s4.3-0.2,5.9-0.7s2.9-1.1,3.7-2c0.8-0.8,1.4-1.7,1.8-2.5C548,154.4,548.2,153.5,548.2,152.6z"/>
</g>
</svg>
