<?xml version="1.0" standalone="no"?>
<!DOCTYPE svg PUBLIC "-//W3C//DTD SVG 20010904//EN"
 "http://www.w3.org/TR/2001/REC-SVG-20010904/DTD/svg10.dtd">
<svg version="1.0" xmlns="http://www.w3.org/2000/svg"
 width="1084.000000pt" height="1084.000000pt" viewBox="0 0 1084.000000 1084.000000"
 preserveAspectRatio="xMidYMid meet">
<metadata>
Created by potrace 1.11, written by Peter Selinger 2001-2013
</metadata>
<g transform="translate(0.000000,1084.000000) scale(0.100000,-0.100000)"
fill="#000000" stroke="none">
<path d="M3659 10836 c-2 -2 -45 -7 -95 -10 -51 -4 -100 -8 -110 -10 -11 -2
-46 -7 -79 -11 -221 -25 -580 -113 -800 -196 -741 -280 -1335 -720 -1797
-1335 -194 -256 -370 -567 -491 -864 -42 -106 -134 -368 -142 -408 -1 -9 -10
-44 -19 -77 -9 -33 -19 -71 -22 -85 -3 -14 -10 -45 -15 -70 -6 -25 -13 -56
-15 -70 -3 -14 -7 -32 -9 -40 -5 -17 -24 -144 -31 -210 -3 -25 -7 -55 -10 -67
-2 -12 -7 -62 -12 -110 -10 -120 -9 -3574 1 -3693 13 -153 21 -210 46 -350 11
-58 22 -116 25 -130 3 -14 9 -38 11 -55 3 -16 8 -38 11 -47 3 -9 7 -25 9 -35
14 -63 60 -217 98 -328 392 -1137 1301 -2039 2445 -2425 206 -69 466 -134 629
-156 26 -3 57 -8 68 -10 11 -2 47 -7 80 -10 33 -3 71 -7 85 -10 88 -14 433
-18 1895 -18 1445 0 1811 4 1906 19 13 2 53 6 89 10 36 4 72 8 80 10 8 1 33 6
55 9 51 8 84 14 170 30 429 83 937 290 1330 544 68 45 260 181 300 213 474
388 808 796 1065 1304 90 178 106 214 163 360 109 281 203 657 232 930 4 33 9
71 11 85 14 79 18 475 18 1905 0 1422 -4 1813 -18 1895 -3 14 -7 54 -11 90 -9
94 -20 163 -30 200 -2 8 -7 35 -10 60 -3 25 -11 63 -17 85 -5 22 -12 51 -15
65 -11 59 -58 225 -99 349 -131 394 -326 767 -579 1106 -49 66 -94 125 -100
131 -5 6 -35 40 -65 75 -245 284 -555 554 -855 744 -33 21 -72 46 -87 56 -15
11 -29 19 -32 19 -3 0 -29 14 -58 31 -253 150 -697 329 -978 394 -8 2 -45 10
-81 19 -37 8 -80 18 -95 21 -84 15 -143 25 -179 30 -22 4 -50 8 -63 10 -13 2
-53 7 -90 11 -37 3 -78 9 -92 12 -29 6 -3615 14 -3621 8z"/>
</g>
</svg>
