<?xml version="1.0" encoding="utf-8"?>
<!-- Generator: Adobe Illustrator 21.1.0, SVG Export Plug-In . SVG Version: 6.00 Build 0)  -->
<svg version="1.1" id="Layer_1" xmlns="http://www.w3.org/2000/svg" xmlns:xlink="http://www.w3.org/1999/xlink" x="0px" y="0px"
	 viewBox="0 0 36.2 540.6" style="enable-background:new 0 0 36.2 540.6;" xml:space="preserve">
<style type="text/css">
	.st0{fill:none;stroke:#383938;}
</style>
<path class="st0" d="M34.8,508.1v2.7c0,3-0.3,5.6-1,7.8c-0.7,2.3-1.5,4-2.5,5.3c-1,1.3-2.2,2.3-3.6,3.1c-1.4,0.8-2.7,1.3-3.9,1.6
	c-1.2,0.2-2.4,0.4-3.7,0.4h-0.3v-12.3c3.8-0.4,5.6-2.8,5.6-7.2v-0.4c0-2.5-0.7-4.4-2-5.5c-1.3-1.2-3.1-1.7-5.4-1.7H1.6v-12.5h16.8
	c1.1,0,2.1,0.1,3.1,0.2s2,0.4,3.1,0.7c1.1,0.4,2.2,0.8,3.1,1.4c1,0.6,1.9,1.3,2.8,2.3c0.9,1,1.6,2.1,2.3,3.4
	c0.6,1.3,1.1,2.8,1.5,4.7C34.6,503.8,34.8,505.8,34.8,508.1z"/>
<path class="st0" d="M24.1,461.3v8.4h7.7v8.1h-7.7v8.4h-6.6v-8.4H9.8v-8.1h7.7v-8.4H24.1z"/>
<path class="st0" d="M34.4,457.9H1.6v-23.2c0-3.6,0.3-6.9,0.9-9.7c0.6-2.8,1.4-5.1,2.3-6.8c1-1.7,2.1-3.1,3.5-4.2s2.8-1.9,4.2-2.3
	s2.9-0.6,4.6-0.6h1.3c1.6,0,3.1,0.2,4.5,0.6s2.8,1.1,4.3,2.2c1.4,1.1,2.7,2.4,3.7,4.1s1.8,4,2.5,6.8c0.6,2.9,1,6.2,1,9.9V457.9z
	 M10.2,445.4h15.5v-9.3c0-8.1-2.6-12.1-7.7-12.1h-0.3c-5,0-7.6,4-7.6,12.1L10.2,445.4L10.2,445.4z"/>
<path class="st0" d="M24.1,367.4v14.8h10.3v12.5H1.6v-27.3c0-10.4,3.6-15.5,10.8-15.5h0.7C20.4,351.9,24.1,357.1,24.1,367.4z
	 M9.8,382.2h6.1v-13.3c0-2.8-1-4.1-3-4.1h-0.1c-2,0-3,1.4-3,4.1V382.2z"/>
<path class="st0" d="M1,326.3v-2c0-2.9,0.2-5.6,0.6-7.9c0.4-2.4,0.9-4.4,1.5-6s1.4-3.1,2.3-4.3c0.9-1.2,1.9-2.2,2.8-2.9
	c0.9-0.7,2-1.3,3.1-1.7c1.1-0.4,2.1-0.7,3-0.8c0.9-0.1,1.9-0.2,2.9-0.2h1.3c1,0,2,0.1,2.9,0.2s1.9,0.4,3.1,0.8
	c1.1,0.4,2.2,1,3.1,1.7c1,0.7,1.9,1.6,2.8,2.9c0.9,1.2,1.7,2.7,2.4,4.3c0.6,1.6,1.2,3.6,1.6,6s0.6,5.1,0.6,8v2c0,2.9-0.2,5.6-0.6,8
	s-0.9,4.4-1.6,6c-0.6,1.6-1.4,3.1-2.4,4.3c-0.9,1.2-1.9,2.2-2.8,2.9c-1,0.7-2,1.2-3.1,1.7c-1.1,0.4-2.1,0.7-3.1,0.8
	c-0.9,0.1-1.9,0.2-2.9,0.2h-1.3c-1,0-2-0.1-2.9-0.2s-1.9-0.4-3-0.8s-2.1-1-3.1-1.7c-0.9-0.7-1.9-1.7-2.8-2.9
	c-0.9-1.2-1.7-2.7-2.3-4.3s-1.1-3.6-1.5-6C1.2,331.9,1,329.2,1,326.3z M18.2,313.4h-0.6c-1,0-1.9,0.2-2.7,0.5s-1.6,0.9-2.4,1.8
	s-1.4,2.1-1.9,3.7s-0.7,3.6-0.7,5.9s0.2,4.3,0.7,6c0.5,1.6,1.1,2.9,1.9,3.7c0.8,0.8,1.6,1.4,2.4,1.7c0.8,0.3,1.7,0.5,2.7,0.5h0.5
	c1,0,1.9-0.2,2.8-0.5c0.9-0.3,1.7-0.9,2.6-1.8c0.8-0.8,1.5-2.1,2-3.7c0.5-1.7,0.7-3.6,0.7-5.9s-0.2-4.3-0.7-5.9
	c-0.5-1.7-1.1-2.9-2-3.7c-0.8-0.8-1.7-1.4-2.5-1.8C20,313.6,19.1,313.4,18.2,313.4z"/>
<path class="st0" d="M23.1,284.8h11.2v12.5H1.6v-29.7c0-9.2,2.8-13.8,8.4-13.8h0.5c1.1,0,2.1,0.2,3,0.7c0.9,0.4,1.6,1,2.2,1.7
	c0.6,0.7,1,1.4,1.3,2.1s0.6,1.4,0.7,2.1c0.5-2.1,1.4-3.7,2.7-4.9c1.3-1.2,3-1.8,5.1-1.8h4.8c1.7,0,2.9-0.2,3.7-0.6h0.2v12.8
	c-0.3,0.3-0.9,0.4-1.7,0.4h-3.8c-1.9,0-3.4,0.5-4.3,1.5s-1.4,2.7-1.4,5.1v11.9H23.1L23.1,284.8z M9.6,284.8h5.6v-14.3
	c0-2.5-0.9-3.8-2.8-3.8l0,0c-1.8,0-2.8,1.3-2.8,3.8V284.8z"/>
<path class="st0" d="M34.4,237.6H10.6v14.1h-9V211h8.9v14.1h23.8v12.5H34.4z"/>
<path class="st0" d="M1.6,207.7v-35.5h8v23.1h4.1v-22.7h8.1v22.7h12.6v12.4H1.6z"/>
<path class="st0" d="M1,145.7v-2c0-2.9,0.2-5.6,0.6-7.9c0.4-2.4,0.9-4.4,1.5-6s1.4-3.1,2.3-4.3c0.9-1.2,1.9-2.2,2.8-2.9
	c0.9-0.7,2-1.3,3.1-1.7c1.1-0.4,2.1-0.7,3-0.8c0.9-0.1,1.9-0.2,2.9-0.2h1.3c1,0,2,0.1,2.9,0.2s1.9,0.4,3.1,0.8
	c1.1,0.4,2.2,1,3.1,1.7c1,0.7,1.9,1.7,2.8,2.9c0.9,1.2,1.7,2.7,2.4,4.3c0.6,1.6,1.2,3.6,1.6,6s0.6,5.1,0.6,8v2c0,2.9-0.2,5.6-0.6,8
	s-0.9,4.4-1.6,6c-0.6,1.6-1.4,3.1-2.4,4.3c-0.9,1.2-1.9,2.2-2.8,2.9c-1,0.7-2,1.2-3.1,1.7c-1.1,0.4-2.1,0.7-3.1,0.8
	c-0.9,0.1-1.9,0.2-2.9,0.2h-1.3c-1,0-2-0.1-2.9-0.2s-1.9-0.4-3-0.8s-2.1-1-3.1-1.7c-0.9-0.7-1.9-1.7-2.8-2.9
	c-0.9-1.2-1.7-2.7-2.3-4.3s-1.1-3.6-1.5-6S1,148.7,1,145.7z M18.2,132.8h-0.6c-1,0-1.9,0.2-2.7,0.5c-0.8,0.4-1.6,0.9-2.4,1.8
	s-1.4,2.1-1.9,3.7s-0.7,3.6-0.7,5.9s0.2,4.3,0.7,6c0.5,1.6,1.1,2.9,1.9,3.7c0.8,0.8,1.6,1.4,2.4,1.7c0.8,0.3,1.7,0.5,2.7,0.5h0.5
	c1,0,1.9-0.2,2.8-0.5c0.9-0.4,1.7-0.9,2.6-1.8c0.8-0.8,1.5-2.1,2-3.7c0.5-1.7,0.7-3.6,0.7-5.9s-0.2-4.3-0.7-5.9s-1.1-2.9-2-3.7
	c-0.8-0.8-1.7-1.4-2.5-1.8C20,133,19.1,132.8,18.2,132.8z"/>
<path class="st0" d="M1.6,116.8v-12.5H25V81.6h9.4v35.2H1.6z"/>
<path class="st0" d="M1.6,65.8h32.7v12.5H1.6V65.8z"/>
<path class="st0" d="M1,38.8v-2c0-2.9,0.2-5.6,0.6-7.9c0.4-2.4,0.9-4.4,1.5-6s1.4-3.1,2.3-4.3c0.9-1.2,1.9-2.2,2.8-2.9
	c0.9-0.7,2-1.3,3.1-1.7s2.1-0.7,3-0.8s1.9-0.2,2.9-0.2h1.3c1,0,2,0.1,2.9,0.2c0.9,0.1,1.9,0.4,3.1,0.8c1.1,0.4,2.2,1,3.1,1.7
	c1,0.7,1.9,1.7,2.8,2.9c0.9,1.2,1.7,2.7,2.4,4.3c0.6,1.6,1.2,3.6,1.6,6s0.6,5.1,0.6,8v2c0,2.9-0.2,5.6-0.6,8s-0.9,4.4-1.6,6
	c-0.6,1.6-1.4,3.1-2.4,4.3c-0.9,1.2-1.9,2.2-2.8,2.9c-1,0.7-2,1.2-3.1,1.7c-1.1,0.4-2.1,0.7-3.1,0.8c-0.9,0.1-1.9,0.2-2.9,0.2h-1.3
	c-1,0-2-0.1-2.9-0.2s-1.9-0.4-3-0.8c-1.1-0.4-2.1-1-3.1-1.7c-0.9-0.7-1.9-1.7-2.8-2.9c-0.9-1.2-1.7-2.7-2.3-4.3s-1.1-3.6-1.5-6
	S1,41.8,1,38.8z M18.2,25.9h-0.6c-1,0-1.9,0.2-2.7,0.5c-0.8,0.4-1.6,0.9-2.4,1.8s-1.4,2.1-1.9,3.7s-0.7,3.6-0.7,5.9s0.2,4.3,0.7,6
	c0.5,1.6,1.1,2.9,1.9,3.7c0.8,0.8,1.6,1.4,2.4,1.7c0.8,0.3,1.7,0.5,2.7,0.5h0.5c1,0,1.9-0.2,2.8-0.5c0.9-0.4,1.7-0.9,2.6-1.8
	c0.8-0.8,1.5-2.1,2-3.7c0.5-1.7,0.7-3.6,0.7-5.9s-0.2-4.3-0.7-5.9s-1.1-2.9-2-3.7c-0.8-0.8-1.7-1.4-2.5-1.8
	C20,26.1,19.1,25.9,18.2,25.9z"/>
</svg>
